<?xml version="1.0" encoding="UTF-8" standalone="no"?>
<!-- Generator: Adobe Illustrator 17.1.0, SVG Export Plug-In . SVG Version: 6.00 Build 0)  -->

<svg
   xmlns:dc="http://purl.org/dc/elements/1.1/"
   xmlns:cc="http://creativecommons.org/ns#"
   xmlns:rdf="http://www.w3.org/1999/02/22-rdf-syntax-ns#"
   xmlns:svg="http://www.w3.org/2000/svg"
   xmlns="http://www.w3.org/2000/svg"
   xmlns:xlink="http://www.w3.org/1999/xlink"
   xmlns:sodipodi="http://sodipodi.sourceforge.net/DTD/sodipodi-0.dtd"
   xmlns:inkscape="http://www.inkscape.org/namespaces/inkscape"
   version="1.1"
   id="cup-coffee-top-view"
   x="0px"
   y="0px"
   viewBox="0 0 1009.9999 936.6011"
   enable-background="new 0 0 1009.9999 936.6011"
   xml:space="preserve"
   sodipodi:docname="cup-coffee-rse-stories-logo.svg"
   inkscape:version="0.92.3 (2405546, 2018-03-11)"><metadata
   id="metadata38"><rdf:RDF><cc:Work
       rdf:about=""><dc:format>image/svg+xml</dc:format><dc:type
         rdf:resource="http://purl.org/dc/dcmitype/StillImage" /><dc:title></dc:title></cc:Work></rdf:RDF></metadata><defs
   id="defs36"><filter
     style="color-interpolation-filters:sRGB;"
     inkscape:label="Gouache"
     id="filter877"
     inkscape:menu-tooltip="Partly opaque water color effect with bleed"
     inkscape:menu="Textures"><feBlend
       in2="BackgroundImage"
       mode="multiply"
       result="fbSourceGraphic"
       id="feBlend875" /><feColorMatrix
       result="fbSourceGraphicAlpha"
       in="fbSourceGraphic"
       values="0 0 0 -1 0 0 0 0 -1 0 0 0 0 -1 0 0 0 0 1 0"
       id="feColorMatrix1019" /><feGaussianBlur
       id="feGaussianBlur1021"
       stdDeviation="3"
       result="result5"
       in="fbSourceGraphic" /><feTurbulence
       id="feTurbulence1023"
       result="result1"
       baseFrequency="0.02"
       type="fractalNoise"
       seed="0"
       numOctaves="3" /><feDisplacementMap
       in2="result1"
       id="feDisplacementMap1025"
       result="result3"
       in="fbSourceGraphic"
       xChannelSelector="R"
       yChannelSelector="G"
       scale="30" /><feComposite
       in2="result1"
       id="feComposite1027"
       result="result4"
       in="result3"
       operator="out" /><feComposite
       in2="result4"
       id="feComposite1029"
       result="result6"
       operator="arithmetic"
       k2="1"
       k1="0.3"
       k3="0.3" /><feComposite
       in2="result5"
       id="feComposite1031"
       in="result6"
       operator="over" /></filter><filter
     inkscape:menu-tooltip="Partly opaque water color effect with bleed"
     inkscape:menu="Textures"
     inkscape:label="Gouache"
     style="color-interpolation-filters:sRGB;"
     id="filter1077"><feGaussianBlur
       stdDeviation="3"
       result="result5"
       in="SourceGraphic"
       id="feGaussianBlur1065" /><feTurbulence
       result="result1"
       baseFrequency="0.02"
       type="fractalNoise"
       seed="0"
       numOctaves="3"
       id="feTurbulence1067" /><feDisplacementMap
       result="result3"
       in2="result1"
       in="SourceGraphic"
       xChannelSelector="R"
       yChannelSelector="G"
       scale="30"
       id="feDisplacementMap1069" /><feComposite
       result="result4"
       in="result3"
       in2="result1"
       operator="out"
       id="feComposite1071" /><feComposite
       result="result6"
       operator="arithmetic"
       k2="1"
       k1="0.3"
       k3="0.3"
       in2="result4"
       id="feComposite1073" /><feComposite
       in2="result5"
       in="result6"
       operator="over"
       id="feComposite1075" /></filter></defs><sodipodi:namedview
   pagecolor="#ffffff"
   bordercolor="#666666"
   borderopacity="1"
   objecttolerance="10"
   gridtolerance="10"
   guidetolerance="10"
   inkscape:pageopacity="0"
   inkscape:pageshadow="2"
   inkscape:window-width="2444"
   inkscape:window-height="1404"
   id="namedview34"
   showgrid="false"
   inkscape:zoom="0.71269276"
   inkscape:cx="-36.938699"
   inkscape:cy="93.370105"
   inkscape:window-x="116"
   inkscape:window-y="36"
   inkscape:window-maximized="1"
   inkscape:current-layer="g8"
   inkscape:object-paths="true" />
<g
   id="cup-coffee-top-view-cup-coffee-top-view">
	<g
   id="g8">
		<path
   d="M464.663,836.2827c-102.5366,0-197.8818-40.9941-268.5278-115.4003    C125.5717,646.4976,89.7147,548.9526,95.1395,446.231c0.5547-10.9317,1.6851-22.1509,3.4317-34.2129    c1.2739-8.4043,3.0205-16.5415,4.8081-24.6582l0.4316-2.1783c0.3907-2.0961,0.8218-4.2534,1.3355-6.3701    c15.9253-65.0771,49.9331-125.1401,98.2837-173.4702C272.1649,136.5859,362.578,97.8315,458.0263,96.167l6.6577-0.0615    c184.9975,0,341.3511,136.6679,366.5034,319.0356l4.1094-4.1299l13.7676,13.7466c36.4316-0.2671,94.1523-0.4516,94.1523-0.4516    c34.9941,0,63.4336,28.3569,63.4541,63.2275c0,16.377-6.8623,32.6103-18.8428,44.6103    c-11.9385,11.918-28.0693,18.7813-44.3027,18.7813c-0.5957,0-79.9951-0.5957-114.0029-1.4785l-1.6651,0.3281l-1.0879,0.4727    l-0.124-0.0821l-2.0547,0.8223l0.8214,0.4316c-0.9238,1.8077-1.1289,2.3418-1.1505,2.4864    c-2.1982,9.123-4.9101,18.1855-7.787,27.1855c-0.9043,2.7949-1.8291,5.2188-2.6719,7.582l-1.3769,3.6778    c-1.6641,4.706-3.5547,9.7617-5.6094,14.7344c-1.8701,4.5605-3.9248,9.246-6.041,13.9101    c-0.9453,2.1377-2.1582,4.6035-3.4111,7.0693l-1.1299,2.3018c-2.8155,5.7324-5.7334,11.5068-8.8985,17.1367    c-16.7675,29.6524-37.3154,56.7344-61.0293,80.4473c-25.7461,25.7891-54.9873,47.5293-86.9199,64.6465l-2.0547,1.0469    c-9.041,4.7265-17.8359,8.9189-27.5351,13.0693c-2.877,1.2119-10.1094,4.0283-10.1094,4.0283    c-6.9248,2.6914-13.9531,5.1982-21.041,7.5c-4.2129,1.3555-8.3848,2.6094-12.5762,3.7803    c-6.4111,1.8701-13.2334,3.5342-20.1172,5.0752c-0.1025,0.041-9.329,2.0547-12.6777,2.7129    c-7.9116,1.459-15.3711,2.4863-22.8506,3.3906l-3.4316,0.4521c-2.4864,0.3487-5.0342,0.6778-7.6031,0.9444    c-12.5756,1.1513-23.7334,1.6855-34.2544,1.6855H464.663z"
   id="path2"
   style="fill:#f1e5f2;fill-opacity:1"
   fill="#F4EDE9" />
		<path
   d="M464.725,181.854c-76.0093,0-147.4355,29.5693-201.1084,83.2627    c-53.7139,53.7139-83.3242,125.1401-83.2832,201.1289c-0.041,75.9268,29.5693,147.3731,83.2832,201.0664    c53.7139,53.7148,125.1406,83.3047,201.0674,83.2637c75.9263,0,147.353-29.5703,201.0669-83.2832    c53.7344-53.6934,83.3037-125.1201,83.3242-201.0884c0.041-75.9473-29.5283-147.3735-83.2832-201.0874    C612.119,211.4233,540.6522,181.813,464.725,181.854z"
   id="path4"
   fill="#A37458" />
		<path
   d="M785.2195,785.4253c-174.8056,174.8066-459.2383,174.8262-634.0444,0    c-174.7857-174.8066-174.7857-459.2178,0-634.0239c174.8061-174.8267,459.2388-174.8267,634.0444-0.0205    c70.6045,70.584,115.9971,164.4907,127.792,264.4384l2.2188,18.5967l-91.5645,0.5342l-1.9316-14.6309    c-0.2256-1.8901-0.6162-3.7192-0.9453-5.5478c-0.3496-1.7671-1.459-8.5894-1.459-8.5894    c-1.0274-6.5551-2.0342-13.1098-3.4727-19.5005c-0.2461-1.2329-0.6161-2.3837-0.9453-3.5136c-0.4512-1.5-0.8828-3-1.2324-4.521    c-2.0342-8.1988-4.0899-16.418-6.6777-24.3911l-1.8907-5.0137c-2.8769-8.4453-6-17.3838-9.7402-25.9937l-1.3975-2.8974    c-8.1982-18.7403-17.8974-36.6382-28.7881-53.0972l-1.4394-2.1577c-67.8301-101.4893-182.1621-161.0796-305.5352-158.8809    c-93.2695,1.6436-181.2378,39.1446-247.7324,105.6397c-38.9805,38.9805-68.8994,86.9204-86.5093,138.6611l-0.7192,2.1782    c-3.4727,10.336-6.2056,19.7061-8.4043,28.6651c-0.4932,1.9931-0.8428,3.9453-1.2124,5.8974l-1.6851,8.3428    c-1.2534,5.8565-2.5273,11.7334-3.3701,17.7129c-1.7055,11.3223-2.8354,22.562-3.4316,33.4736    c-5.2603,99.9068,29.6313,194.8208,98.2837,267.1919c68.7143,72.4335,161.5112,112.2979,261.2949,112.2568    c11.7949,0.041,23.98-0.5752,36.227-1.7881c2.0342-0.1846,4.0274-0.5547,6.0206-0.8828l7.8291-1.1309    c7.2328-0.9453,14.4247-1.8691,21.5146-3.2461c2.6299-0.5547,5.3418-1.2744,8.0342-1.9941    c2.1162-0.5742,11.7334-2.959,11.7334-2.959c4.7676-1.1299,9.5342-2.2598,14.2402-3.6982    c6.2461-1.8702,12.1846-4.1299,18.1026-6.3907c0,0,6.9462-2.5888,8.7128-3.165c1.9317-0.6777,3.8624-1.3145,5.753-2.1152    c43.9531-18.1856,83.1191-44.3243,116.5517-77.7559c46.419-46.4395,79.2354-104.8389,94.8926-168.9297l3.1846-13.0898    l13.4599,0.329c15.1026,0.3906,38.1788,0.7197,59.5499,0.9658l20.3221,0.2461l-4.1504,19.9121    C888.8865,645.9839,846.8651,723.7798,785.2195,785.4253L785.2195,785.4253z"
   id="path6"
   style="fill:#682152;fill-opacity:1"
   fill="#BCB3BE" />
	<text
   xml:space="preserve"
   style="font-style:normal;font-weight:normal;font-size:10px;line-height:125%;font-family:sans-serif;letter-spacing:0px;word-spacing:0px;opacity:0.75099996;fill:#000000;fill-opacity:1;stroke:#fdfdfd;stroke-width:3;stroke-linecap:butt;stroke-linejoin:miter;stroke-miterlimit:4;stroke-dasharray:none;stroke-opacity:0.1650165;filter:url(#filter877)"
   id="text7258"
   transform="rotate(-5.3146873,248.69773,523.58147)"><textPath
     xlink:href="#path859"
     id="textPath861"><tspan
   style="font-style:normal;font-variant:normal;font-weight:normal;font-stretch:normal;font-size:80px;font-family:Keraleeyam;-inkscape-font-specification:Keraleeyam;opacity:0.525;fill:#ffffff;fill-opacity:1;stroke:#fdfdfd;stroke-width:3;stroke-miterlimit:4;stroke-dasharray:none;stroke-opacity:0.1650165"
   id="tspan7256">RSE STORIES</tspan></textPath></text>


<flowRoot
   xml:space="preserve"
   id="flowRoot7260"
   style="fill:black;stroke:none;stroke-opacity:1;stroke-width:1px;stroke-linejoin:miter;stroke-linecap:butt;fill-opacity:1;font-family:sans-serif;font-style:normal;font-weight:normal;font-size:10px;line-height:125%;letter-spacing:0px;word-spacing:0px"><flowRegion
     id="flowRegion7262"><rect
       id="rect7264"
       width="1.4031292"
       height="28.062584"
       x="374.6355"
       y="1064.2859" /></flowRegion><flowPara
     id="flowPara7266" /></flowRoot><path
   style="fill:none;fill-rule:evenodd;stroke:#000000;stroke-width:1px;stroke-linecap:butt;stroke-linejoin:miter;stroke-opacity:1;opacity:0"
   d="m 296.06025,599.85007 c 2.33855,0.93542 4.6771,1.87084 7.01565,2.80626 0.46771,0 0.95942,-0.1479 1.40313,0 0.99216,0.33072 1.8141,1.07241 2.80626,1.40313 1.34998,0.45 4.14432,-0.36705 5.61251,0 1.43487,0.35872 2.77452,1.04441 4.20939,1.40313 2.80626,0.70156 0,-1.40313 4.20939,0 0.6275,0.20917 0.81152,1.10732 1.40313,1.40313 0.48917,0.24458 7.38877,0 8.41877,0 5.14481,0 10.28962,0 15.43442,0 8.41878,0 16.83755,0 25.25633,0 2.33855,0 4.6771,0 7.01565,0 2.33854,0 4.68517,0.19421 7.01564,0 3.29578,-0.27465 6.52202,-1.18314 9.82191,-1.40313 3.73339,-0.24889 7.48981,0.21972 11.22503,0 4.22798,-0.2487 8.42188,-0.90827 12.62816,-1.40313 1.97978,-0.23291 18.47897,-2.25598 21.04694,-2.80626 3.32939,-0.71344 6.45115,-2.32472 9.8219,-2.80626 3.24107,-0.463 6.57036,0.38254 9.82191,0 9.4741,-1.1146 18.62868,-4.19743 28.06258,-5.61251 23.98751,-3.59813 4.11902,1.30076 29.46571,-4.20939 5.65321,-1.22896 11.14902,-3.15596 16.83755,-4.20939 16.90022,-3.12967 21.93328,-1.98724 37.88449,-5.61251 4.76161,-1.08219 9.29405,-3.02508 14.03129,-4.20939 2.76003,-0.69001 5.64156,-0.78597 8.41878,-1.40313 2.88761,-0.64169 5.51816,-2.22614 8.41877,-2.80626 0.91726,-0.18345 1.91884,0.29581 2.80626,0 1.98433,-0.66144 3.65403,-2.07183 5.61252,-2.80626 1.80563,-0.67711 3.74168,-0.93542 5.61251,-1.40313 2.80626,-0.93542 5.67229,-1.70766 8.41878,-2.80625 1.94206,-0.77683 3.79645,-1.76851 5.61252,-2.80626 1.46416,-0.83667 2.64365,-2.17997 4.20938,-2.80626 0.86852,-0.34741 1.9696,0.41833 2.80626,0 0.41833,-0.20917 0,-0.93542 0,-1.40313 0,-3.29059 -0.33072,0.66144 1.40313,-2.80626 0.20917,-0.41833 -0.33072,-1.07241 0,-1.40313 0.33072,-0.33072 0.93542,0 1.40313,0 0,-0.46771 -0.33072,-1.07241 0,-1.40313 0.33072,-0.33072 1.07241,0.33072 1.40313,0 0.33072,-0.33072 -0.33072,-1.07241 0,-1.40313 0.33072,-0.33072 0.9848,0.20917 1.40313,0 0.59161,-0.2958 0.81152,-1.10732 1.40313,-1.40313 0.41833,-0.20916 1.07241,0.33073 1.40313,0 0.33072,-0.33072 -0.33072,-1.0724 0,-1.40312 0.33072,-0.33073 1.07241,0.33072 1.40313,0 0.33072,-0.33073 -0.20917,-0.9848 0,-1.40313 0.37469,-0.74939 3.47069,-3.47069 4.20938,-4.20939"
   id="path845"
   inkscape:connector-curvature="0" /><path
   style="fill:none;fill-rule:evenodd;stroke:#000000;stroke-width:1px;stroke-linecap:butt;stroke-linejoin:miter;stroke-opacity:1;opacity:0"
   d="m 339.55726,657.37837 c 5.97568,3.47505 5.68404,2.80626 11.22503,2.80626 0.46771,0 1.07241,-0.33072 1.40313,0 0.33072,0.33072 -0.33072,1.07241 0,1.40313 0.33072,0.33072 0.93542,0 1.40313,0 0.93542,0 1.87084,0 2.80626,0 4.6771,0 9.35419,0 14.03129,0 2.80626,0 5.61252,0 8.41878,0 0.63191,0 3.78236,0.21351 4.20938,0 0.59161,-0.29581 0.81152,-1.10733 1.40313,-1.40313 0.41833,-0.20917 0.93542,0 1.40313,0 1.40313,0 2.80626,0 4.20939,0 2.80626,0 5.61252,0 8.41877,0 0.33343,0 5.29804,0.15724 5.61252,0 0.59161,-0.29581 0.81152,-1.10733 1.40313,-1.40313 0.41833,-0.20917 0.93542,0 1.40313,0 0.46771,0 0.93542,0 1.40313,0 2.80626,0 5.61251,0 8.41877,0 8.41878,0 16.83755,0 25.25633,0 2.80626,0 5.61251,0 8.41877,0 0.93542,0 1.88901,0.18345 2.80626,0 1.45031,-0.29006 2.75908,-1.11307 4.20939,-1.40313 1.78849,-0.3577 6.9967,0.47402 8.41877,0 0.6275,-0.20917 0.77563,-1.19396 1.40313,-1.40313 0.88742,-0.29581 1.89877,0.22687 2.80626,0 1.01461,-0.25365 1.8141,-1.07241 2.80626,-1.40313 0.44371,-0.1479 0.95942,0.1479 1.40313,0 0.99216,-0.33072 1.8141,-1.07241 2.80626,-1.40313 0.88741,-0.2958 1.96959,0.41833 2.80626,0 0.59161,-0.2958 0.81151,-1.10732 1.40312,-1.40313 0.8819,-0.44095 4.73062,0.44095 5.61252,0 0.59161,-0.2958 0.81152,-1.10732 1.40313,-1.40313 0.41833,-0.20916 0.93542,0 1.40313,0 0.93542,0 1.889,0.18345 2.80626,0 1.4503,-0.29006 2.75908,-1.11306 4.20939,-1.40313 1.14867,-0.22973 6.29582,0.35992 7.01564,0 0.59161,-0.2958 0.81152,-1.10732 1.40313,-1.40312 0.41833,-0.20917 0.93542,0 1.40313,0 0.46771,0 0.93542,0 1.40313,0 1.47752,0 5.85288,0.29069 7.01564,0 1.43487,-0.35872 2.77452,-1.04442 4.20939,-1.40313 0.45375,-0.11344 0.93542,0 1.40313,0 0.93542,0 1.87084,0 2.80626,0 1.87084,0 3.74168,0 5.61252,0 0.93542,0 1.91884,0.2958 2.80626,0 0.93541,-0.46771 1.87083,-0.93542 2.80625,-1.40313 0.46771,0 0.95942,0.1479 1.40313,0 0.99216,-0.33072 1.79166,-1.14948 2.80626,-1.40313 1.81498,-0.45375 3.77801,0.3669 5.61252,0 1.4503,-0.29006 2.75908,-1.11307 4.20939,-1.40313 2.29313,-0.45863 4.72251,0.45863 7.01564,0 1.02552,-0.20511 1.78074,-1.19803 2.80626,-1.40313 2.75176,-0.55035 5.6507,0.46135 8.41877,0 1.45891,-0.24315 2.75049,-1.15998 4.20939,-1.40313 1.38404,-0.23067 2.82535,0.23067 4.20939,0 1.4589,-0.24315 2.74522,-1.19396 4.20939,-1.40313 1.85203,-0.26458 3.76713,0.30757 5.61251,0 1.0316,-0.17193 1.79166,-1.14948 2.80626,-1.40313 0.90749,-0.22687 1.89877,0.22687 2.80626,0 1.0146,-0.25365 1.83523,-1.01472 2.80626,-1.40313 5.48349,-2.19339 11.35406,-3.41912 16.83755,-5.61251 0.97103,-0.38842 1.81409,-1.07241 2.80626,-1.40313 0.44371,-0.14791 0.95942,0.1479 1.40313,0 1.98432,-0.66144 3.5833,-2.29896 5.61251,-2.80626 0.90749,-0.22687 1.91884,0.2958 2.80626,0 0.6275,-0.20917 0.81152,-1.10732 1.40313,-1.40313 0.83666,-0.41833 1.96959,0.41833 2.80626,0 0.59161,-0.29581 0.81152,-1.10732 1.40313,-1.40313 0.41833,-0.20917 0.98479,0.20917 1.40313,0 0.59161,-0.29581 0.81151,-1.10732 1.40313,-1.40313 0.41833,-0.20916 0.98479,0.20917 1.40313,0 1.18322,-0.59161 1.62303,-2.21465 2.80625,-2.80626 0.41834,-0.20916 1.07241,0.33072 1.40313,0 0.33072,-0.33072 -0.33072,-1.07241 0,-1.40313 0.33072,-0.33072 0.9848,0.20917 1.40313,0 1.18322,-0.59161 1.62304,-2.21464 2.80626,-2.80625 0.41833,-0.20917 0.9848,0.20916 1.40313,0 1.68375,-0.84188 2.52563,-3.36751 4.20939,-4.20939 0.41833,-0.20917 0.98479,0.20916 1.40313,0 1.68375,-0.84188 2.52563,-3.36751 4.20938,-4.20939 0.41834,-0.20917 1.07241,0.33072 1.40313,0 0.33072,-0.33072 -0.33072,-1.07241 0,-1.40313 0.33072,-0.33072 0.9848,0.20917 1.40313,0 1.18322,-0.59161 1.55126,-2.38792 2.80626,-2.80626 0.88742,-0.2958 1.91884,0.29581 2.80626,0 0.6275,-0.20916 0.93542,-0.93542 1.40313,-1.40313 0.46771,-0.46771 0.93542,-0.93542 1.40313,-1.40313 4.65359,-4.65359 -1.32289,0.66145 2.80626,-1.40312 1.18322,-0.59162 1.62303,-2.21465 2.80625,-2.80626 0.41834,-0.20917 0.9848,0.20916 1.40313,0 0.59161,-0.29581 0.81152,-1.10733 1.40313,-1.40313 0.41833,-0.20917 1.07241,0.33072 1.40313,0 0.33072,-0.33072 -0.33072,-1.07241 0,-1.40313 0.33072,-0.33072 1.40313,-0.46771 1.40313,0 0,0.46771 -1.40313,0.46771 -1.40313,0 0,-0.66144 0.93542,-0.93542 1.40313,-1.40313 0.46771,-0.46771 0.93542,-0.93542 1.40313,-1.40313 0.46771,-0.46771 0.93542,-0.93542 1.40313,-1.40313 0.46771,-0.46771 1.10732,-0.81152 1.40313,-1.40313 0.20916,-0.41833 -0.33072,-1.07241 0,-1.40313 1.87084,-1.87084 1.40313,2.33855 1.40313,-1.40313"
   id="path859"
   inkscape:connector-curvature="0" /></g>
	<g
   id="g30">
		<g
   id="g12">
			<path
   fill="#7A5742"
   d="M464.684,764.4253h-0.021c-79.6665,0-154.5449-31.0293-210.8481-87.3516     c-56.3232-56.3242-87.331-131.2031-87.3105-210.8281c0-164.4292,133.771-298.2207,298.2207-298.2412     c79.687,0,154.5659,31.0283,210.8687,87.3516c56.3232,56.3237,87.331,131.2021,87.3105,210.8276     C762.8632,630.6128,629.0917,764.4038,464.684,764.4253L464.684,764.4253z M464.7865,201.4575     C318.7279,201.478,199.9574,320.269,199.9574,466.2456c0,70.707,27.5147,137.1817,77.5088,187.1758     c49.9946,49.9941,116.4898,77.5293,187.1968,77.5293c145.9765,0,264.7471-118.791,264.7676-264.7671     c0.0205-70.707-27.4932-137.1816-77.5088-187.1763C601.9471,228.9927,535.4734,201.4575,464.7865,201.4575L464.7865,201.4575z"
   id="path10" />
		</g>
		<g
   id="g16">
			<path
   fill="#8C7C8E"
   d="M468.1977,936.6011c-119.9419,0-239.9039-45.6592-331.2212-136.9766     c-182.6353-182.6347-182.6353-479.8076,0-662.4223C225.4579,48.7202,343.0775,0,468.1977,0     c125.1196,0,242.7397,48.7202,331.2006,137.2022c80.0157,79.9956,128.3457,186.1694,136.1133,298.9189     c0.6367,9.2266-6.3291,17.2197-15.5547,17.8364c-9.0009,0.6782-17.1992-6.3291-17.8369-15.5346     c-7.1924-104.6949-52.0908-203.2867-126.373-277.5694C693.5937,78.7007,584.3788,33.4531,468.1977,33.4531     s-225.417,45.2476-307.5704,127.4004c-169.5864,169.5664-169.5864,445.5121,0,615.1197     c169.587,169.5654,445.5328,169.5654,615.1402,0c65.6933-65.6944,107.9414-148.751,122.1601-240.1915     c1.4395-9.124,9.9464-15.3085,19.1114-13.9526c9.1435,1.418,15.3906,9.9653,13.9726,19.1099     c-15.3301,98.4892-60.8437,187.9375-131.5928,258.6855C708.1014,890.9419,588.1601,936.6011,468.1977,936.6011L468.1977,936.6011     z"
   id="path14"
   style="fill:#50193f;fill-opacity:1" />
		</g>
		
		
		<g
   id="g28">
			<path
   fill="#E6DBD5"
   d="M464.7865,839.6323h-0.0615c-103.5439,0-199.7725-41.3642-271.0142-116.4687     c-71.2006-75.043-107.4072-173.4707-101.9414-277.1172C102.0233,251.3901,262.8768,96.249,457.9643,92.8174l6.7197-0.041     c189.0054,0,348.3784,141.3735,370.7358,328.8379c32.3223-0.4317,107.8789-0.6783,107.8789-0.6783     c36.7832,0.0205,66.6602,29.9185,66.7012,66.6592c0,17.7539-6.9248,34.4805-19.5625,47.1172     c-12.5957,12.6172-29.3223,19.5625-47.0762,19.5625c0,0,0,0-0.0205,0c-0.5752,0-79.9344-0.5957-113.9414-1.5     c-1.0693,0-1.6846,0.9453-1.8906,1.8291C786.8437,722.4028,637.6815,839.6323,464.7865,839.6323L464.7865,839.6323z      M464.684,126.2295l-6.1441,0.0615c-177.601,3.103-324.0293,144.3325-333.3584,321.5225     c-4.9726,94.3999,27.9869,183.9907,92.7969,252.3354C282.85,768.5132,370.4481,806.1792,464.663,806.1792h0.1235     c157.4009,0,293.1861-106.709,330.2144-259.5068c3.9453-16.1309,18.083-27.3706,34.3984-27.3706     c34.9736,0.9248,114.044,1.5205,114.044,1.5205c8.7129,0,17.0351-3.4727,23.3438-9.7813     c6.287-6.2876,9.7598-14.6098,9.7598-23.4253c-0.0205-18.3086-14.918-33.206-33.2061-33.2265     c0.0615,0-75.331,0.2465-108.1064,0.5547c-17.0957,0-31.1504-12.6788-33.0625-29.4668     C781.8495,254.9043,636.7361,126.2295,464.684,126.2295L464.684,126.2295z"
   id="path26"
   style="fill:#e7d2e9;fill-opacity:1" />
		</g>
	</g>
</g>
</svg>